HIERARCHY
ROOT root
{
	OFFSET	0	13.1	24.9
	CHANNELS 6  Xposition Yposition Zposition Xrotation Yrotation Zrotation
	JOINT spine_1
	{
		OFFSET	0	9.99999	0
		CHANNELS 3  Xrotation Yrotation Zrotation
		JOINT spine_2
		{
			OFFSET	0	112	-10
			CHANNELS 3  Xrotation Yrotation Zrotation
			JOINT spine_3
			{
				OFFSET	0	206.5	19.3
				CHANNELS 3  Xrotation Yrotation Zrotation
				JOINT spine_4
				{
					OFFSET	0	110.4	14.6
					CHANNELS 3  Xrotation Yrotation Zrotation
					JOINT neck_1
					{
						OFFSET	0	71.8	-50.3
						CHANNELS 3  Xrotation Yrotation Zrotation
						JOINT neck_2
						{
							OFFSET	0	86.2	-25.8
							CHANNELS 3  Xrotation Yrotation Zrotation
							JOINT head_ee
							{
								OFFSET	0	179.8	-8.7
								CHANNELS 3  Xrotation Yrotation Zrotation
								End Site
								{
									OFFSET	1	0	0
								}
							}
						}
					}
					JOINT left_clavicle
					{
						OFFSET	-43.2	22.4	-70.8
						CHANNELS 3  Xrotation Yrotation Zrotation
						JOINT left_shoulder
						{
							OFFSET	-93.9	-5.79999	48.7
							CHANNELS 3  Xrotation Yrotation Zrotation
							JOINT left_elbow
							{
								OFFSET	-291.4	-30.8	15.2
								CHANNELS 3  Xrotation Yrotation Zrotation
								JOINT left_lowarm_twist
								{
									OFFSET	-110.7	-3.89999	13.6
									CHANNELS 3  Xrotation Yrotation Zrotation
									JOINT left_hand
									{
										OFFSET	-110.7	-3.89999	13.6
										CHANNELS 3  Xrotation Yrotation Zrotation
										JOINT left_ee
										{
											OFFSET	-80.8	-5.10001	12.1
											CHANNELS 3  Xrotation Yrotation Zrotation
											End Site
											{
												OFFSET	1	0	0
											}
										}
									}
								}
							}
						}
					}
					JOINT right_clavicle
					{
						OFFSET	43.2	22.4	-70.8
						CHANNELS 3  Xrotation Yrotation Zrotation
						JOINT right_shoulder
						{
							OFFSET	93.9	-5.79999	48.7
							CHANNELS 3  Xrotation Yrotation Zrotation
							JOINT right_elbow
							{
								OFFSET	291.4	-30.8	15.2
								CHANNELS 3  Xrotation Yrotation Zrotation
								JOINT right_lowarm_twist
								{
									OFFSET	110.7	-3.89999	13.6
									CHANNELS 3  Xrotation Yrotation Zrotation
									JOINT right_hand
									{
										OFFSET	110.7	-3.89999	13.6
										CHANNELS 3  Xrotation Yrotation Zrotation
										JOINT right_ee
										{
											OFFSET	80.8	-5.10001	12.1
											CHANNELS 3  Xrotation Yrotation Zrotation
											End Site
											{
												OFFSET	1	0	0
											}
										}
									}
								}
							}
						}
					}
				}
			}
		}
	}
	JOINT left_hip
	{
		OFFSET	-82.8	-127.5	0.300001
		CHANNELS 3  Xrotation Yrotation Zrotation
		JOINT left_knee
		{
			OFFSET	-28.2	-396.7	2.2
			CHANNELS 3  Xrotation Yrotation Zrotation
			JOINT left_ankle
			{
				OFFSET	-11.7	-411.3	35.4
				CHANNELS 3  Xrotation Yrotation Zrotation
				JOINT left_toes
				{
					OFFSET	0	-60	-88.6
					CHANNELS 3  Xrotation Yrotation Zrotation
					JOINT left_foot_ee
					{
						OFFSET	-22.5	-16.5	-42.2
						CHANNELS 3  Xrotation Yrotation Zrotation
						End Site
						{
							OFFSET	1	0	0
						}
					}
				}
			}
		}
	}
	JOINT right_hip
	{
		OFFSET	82.8	-127.5	0.300001
		CHANNELS 3  Xrotation Yrotation Zrotation
		JOINT right_knee
		{
			OFFSET	28.2	-396.7	2.2
			CHANNELS 3  Xrotation Yrotation Zrotation
			JOINT right_ankle
			{
				OFFSET	11.7	-411.3	35.4
				CHANNELS 3  Xrotation Yrotation Zrotation
				JOINT right_toes
				{
					OFFSET	0	-60	-88.6
					CHANNELS 3  Xrotation Yrotation Zrotation
					JOINT right_foot_ee
					{
						OFFSET	22.5	-16.5	-42.2
						CHANNELS 3  Xrotation Yrotation Zrotation
						End Site
						{
							OFFSET	1	0	0
						}
					}
				}
			}
		}
	}
}
MOTION
Frames: 8
Frame Time: 0.02
2800.94 716.97 -1473.77 -92.6539639625 82.2570695566 82.5521970617 4.64523 0.458427 5.43431 4.66164 0.112224 5.4524 4.65981 -0.599472 5.42061 4.61893 0.262823 5.44724 -21.1642 2.54593 -7.31198 -21.1321 8.48016 -5.67841 -0.0 0.0 -0.0 -1.33341 -4.3904 -3.19525 24.0078 -28.6744 59.955 1.99361 -44.6368 0.818455 10.3048 0.247525 -1.29131 -1.19598 5.39745 -5.59195 -0.0 0.0 -0.0 8.08392 -13.9814 -15.0292 -38.931 15.7864 -66.456 0.223121 6.30732 -0.0122934 5.94348 -0.17117 0.73956 -0.127281 1.05756 1.29855 0.0 0.0 0.0 2.5549 -3.75386 11.0503 -8.00266 0.245835 1.20257 35.3872 -16.4682 -4.78128 -22.2693 0.0 0.0 -0.0 0.0 -0.0 31.7813 9.56342 9.13312 3.65517 0.167685 0.535671 -13.7743 -10.1651 -2.0631 12.2575 -0.0 -0.0 0.0 0.0 0.0 
2751.83331949 715.217 -1500.02366506 -104.414965028 83.5479767834 93.9941315235 4.21895 0.741358 5.72905 4.23712 0.375921 5.76445 4.26314 -0.417645 5.76159 4.21719 0.495985 5.7554 -18.6476 0.92565 -8.74033 -18.489 6.43451 -7.79603 -0.0 0.0 -0.0 -2.90842 -4.1723 -6.33904 20.3279 -28.8708 61.2722 2.03049 -45.1617 0.844486 6.58612 0.185057 -0.820477 -0.439418 4.75596 -0.898029 -0.0 0.0 -0.0 9.13991 -19.4591 -16.1637 -36.1963 16.2951 -66.1108 0.323394 9.10164 -0.0257404 7.72362 -0.207409 0.964061 0.483707 -4.50258 -5.0742 0.0 0.0 0.0 3.34906 -2.48044 9.02682 -18.9123 0.306996 2.87286 39.3157 -5.00784 -4.87234 -23.809 0.0 0.0 -0.0 0.0 -0.0 29.6245 10.1522 7.02039 -2.65552 -0.100193 -0.395183 -10.306 -8.74507 -1.53707 16.276 -0.0 -0.0 0.0 0.0 0.0 
2707.5304679 719.317 -1514.1948972 -117.081069354 85.2628681249 106.946088311 3.35621 0.918466 5.68623 3.37401 0.555385 5.73294 3.42233 -0.319342 5.75086 3.3767 0.59138 5.72935 -18.3601 0.746632 -10.963 -18.0932 7.33181 -9.96192 -0.0 0.0 -0.0 -4.90288 -4.0897 -10.3985 12.8919 -29.3925 62.7115 1.90569 -43.3461 0.757386 3.72467 0.116261 -0.461462 0.226965 5.96287 3.97655 -0.0 0.0 -0.0 10.2554 -21.9826 -17.5085 -33.1035 16.511 -65.6123 0.365426 10.2609 -0.0328091 8.61309 -0.222897 1.07662 1.32292 -8.25741 -12.0848 0.0 0.0 0.0 3.97008 -4.30766 9.24346 -29.1913 0.0741892 4.431 37.6613 2.66172 -4.65425 -25.5158 0.0 0.0 -0.0 0.0 -0.0 29.2841 10.4311 4.23957 -16.8208 -0.319941 -2.55224 6.69774 -13.008 0.96593 15.6058 -0.0 -0.0 0.0 0.0 0.0 
2685.76329244 721.036 -1515.85666932 -131.752024429 85.9577631257 121.593761458 3.21533 0.948238 5.70674 3.23325 0.583798 5.75529 3.28531 -0.308372 5.77653 3.2393 0.606248 5.75298 -15.7809 -1.02549 -11.0578 -15.4569 4.47631 -10.7784 -0.0 0.0 -0.0 -5.65816 -3.47566 -11.8345 9.60192 -30.3839 63.489 1.79549 -41.647 0.682931 4.94905 0.147894 -0.614664 0.578159 5.18322 5.97178 -0.0 0.0 -0.0 10.7295 -22.5679 -18.1299 -31.6161 16.892 -65.5527 0.474662 13.232 -0.055055 9.10637 -0.230733 1.13915 1.14045 -11.0417 -11.9132 0.0 0.0 0.0 4.38073 0.301089 9.12576 -32.296 -0.0507036 4.89102 35.62 7.9154 -4.46217 -25.9114 0.0 0.0 -0.0 0.0 -0.0 26.5002 10.0201 3.89784 -17.5416 -0.316802 -2.66278 9.61933 -16.986 1.38642 17.7228 -0.0 -0.0 0.0 0.0 0.0 
2669.43878441 718.246 -1520.12156414 -115.292490158 87.032935584 104.857190179 2.96552 1.23686 5.5994 2.98253 0.878635 5.66646 3.06459 -0.0240202 5.7339 3.01982 0.880368 5.66619 -15.5629 -1.1569 -11.6142 -15.2038 4.59514 -11.356 -0.0 0.0 -0.0 -6.50132 -2.47491 -13.3633 6.83686 -31.0526 64.0458 1.72038 -40.435 0.633615 5.12045 0.15206 -0.636162 0.828317 4.2696 7.26377 -0.0 0.0 -0.0 10.925 -22.6517 -18.4161 -28.9154 18.1051 -66.4851 0.477987 13.3214 -0.0558185 8.99913 -0.229075 1.12555 1.01398 -13.2716 -11.9046 0.0 0.0 0.0 6.14749 0.23079 8.99621 -39.2692 -0.42093 5.89572 32.886 7.96824 -4.19157 -26.3142 0.0 0.0 -0.0 0.0 -0.0 24.3434 9.80326 3.48446 -16.2374 -0.321463 -2.46274 13.7595 -18.4848 1.96409 17.3595 -0.0 -0.0 0.0 0.0 0.0 
2671.07896538 718.246 -1524.53562703 -76.0555528522 87.2360676899 65.5749450167 2.96552 1.23686 5.5994 2.98253 0.878635 5.66646 3.06459 -0.0240202 5.7339 3.01982 0.880368 5.66619 -15.5629 -1.1569 -11.6142 -15.2038 4.59514 -11.356 -0.0 0.0 -0.0 -6.50132 -2.47491 -13.3633 6.83686 -31.0526 64.0458 1.72038 -40.435 0.633615 5.12045 0.15206 -0.636162 0.828317 4.2696 7.26377 -0.0 0.0 -0.0 10.925 -22.6517 -18.4161 -28.9154 18.1051 -66.4851 0.477987 13.3214 -0.0558185 8.99913 -0.229075 1.12555 1.01398 -13.2716 -11.9046 0.0 0.0 0.0 6.14749 0.23079 8.99621 -39.2692 -0.42093 5.89572 32.886 7.96824 -4.19157 -26.3142 0.0 0.0 -0.0 0.0 -0.0 24.3434 9.80326 3.48446 -16.2374 -0.321463 -2.46274 13.7595 -18.4848 1.96409 17.3595 -0.0 -0.0 0.0 0.0 0.0 
2658.18447418 714.238 -1525.909193 -104.996234723 87.4455270895 94.2866898143 2.91359 1.26833 5.72915 2.93138 0.901829 5.79793 3.01785 -0.0265257 5.86735 2.97096 0.898864 5.79839 -15.2064 -1.40856 -12.3664 -14.7957 4.63528 -12.1639 -0.0 0.0 -0.0 -7.30688 -2.06547 -14.9469 4.01809 -32.3725 64.7277 1.81802 -42.002 0.697959 3.94615 0.122226 -0.489126 1.09407 4.68698 9.19708 -0.0 0.0 -0.0 11.1069 -23.4019 -18.5342 -27.9222 18.3008 -66.7355 0.607841 16.7575 -0.089529 10.5613 -0.250706 1.32392 1.13363 -13.4349 -12.7336 0.0 0.0 0.0 9.57809 1.1048 7.75936 -47.2486 -0.991076 6.98152 32.0068 10.1561 -4.10995 -28.203 0.0 0.0 -0.0 0.0 -0.0 22.4118 9.56441 3.56203 -14.7205 -0.321157 -2.23 18.6299 -19.7725 2.62171 15.5097 -0.0 -0.0 0.0 0.0 0.0 
2658.56028091 714.238 -1526.92685461 -95.8373144152 87.5197109122 85.1189616903 2.91359 1.26833 5.72915 2.93138 0.901829 5.79793 3.01785 -0.0265257 5.86735 2.97096 0.898864 5.79839 -15.2064 -1.40856 -12.3664 -14.7957 4.63528 -12.1639 -0.0 0.0 -0.0 -7.30688 -2.06547 -14.9469 4.01809 -32.3725 64.7277 1.81802 -42.002 0.697959 3.94615 0.122226 -0.489126 1.09407 4.68698 9.19708 -0.0 0.0 -0.0 11.1069 -23.4019 -18.5342 -27.9222 18.3008 -66.7355 0.607841 16.7575 -0.089529 10.5613 -0.250706 1.32392 1.13363 -13.4349 -12.7336 0.0 0.0 0.0 9.57809 1.1048 7.75936 -47.2486 -0.991076 6.98152 32.0068 10.1561 -4.10995 -28.203 0.0 0.0 -0.0 0.0 -0.0 22.4118 9.56441 3.56203 -14.7205 -0.321157 -2.23 18.6299 -19.7725 2.62171 15.5097 -0.0 -0.0 0.0 0.0 0.0 
